<?xml version="1.0" encoding="UTF-8"?>
<svg xmlns="http://www.w3.org/2000/svg" viewBox="0 0 580.03 171.26">
  <defs>
    <style>.d{fill:#1d1d1b;}</style>
  </defs>
  <g id="a"></g>
  <g id="b">
    <g id="c">
      <g>
        <g>
          <g>
            <g>
              <path class="d" d="M17.67,170.49H.19v-4.76H17.67v4.76Z"></path>
              <path class="d" d="M28.62,170.49H11.14v-4.76H28.62v4.76Z"></path>
              <path class="d" d="M39.56,170.49H22.09v-4.76h17.48v4.76Z"></path>
            </g>
            <g>
              <path class="d" d="M79.45,129.19h15.38c3.93,0,7.27,1.34,10.02,4.01,2.71,2.67,4.07,5.95,4.07,9.84s-1.36,7.17-4.07,9.84c-2.75,2.67-6.09,4.01-10.02,4.01h-7.25v13.55h-8.13v-41.24Zm8.13,20.09h7.25c1.73,0,3.16-.6,4.3-1.8,1.14-1.2,1.71-2.68,1.71-4.45s-.57-3.3-1.71-4.48c-1.14-1.18-2.57-1.77-4.3-1.77h-7.25v12.49Z"></path>
              <path class="d" d="M173.42,170.44h-8.84l-2.47-7.42h-16.44l-2.47,7.42h-8.78l14.44-41.24h10.08l14.49,41.24Zm-19.5-31.88l-5.66,16.85h11.31l-5.66-16.85Z"></path>
              <path class="d" d="M205.48,129.19h15.38c3.93,0,7.27,1.34,10.02,4.01,2.71,2.67,4.07,5.95,4.07,9.84s-1.36,7.17-4.07,9.84c-2.75,2.67-6.09,4.01-10.02,4.01h-7.25v13.55h-8.13v-41.24Zm8.13,20.09h7.25c1.73,0,3.16-.6,4.3-1.8,1.14-1.2,1.71-2.68,1.71-4.45s-.57-3.3-1.71-4.48c-1.14-1.18-2.57-1.77-4.3-1.77h-7.25v12.49Z"></path>
              <path class="d" d="M299.45,170.44h-8.84l-2.47-7.42h-16.44l-2.47,7.42h-8.78l14.44-41.24h10.08l14.49,41.24Zm-19.5-31.88l-5.66,16.85h11.31l-5.66-16.85Z"></path>
              <path class="d" d="M349.83,148.28h20.68v3.18c0,5.89-1.88,10.67-5.66,14.32-3.77,3.65-8.64,5.48-14.61,5.48-6.36,0-11.65-2.06-15.85-6.19-4.16-4.16-6.25-9.23-6.25-15.2s2.06-11.1,6.19-15.26c4.16-4.16,9.31-6.25,15.44-6.25,3.81,0,7.31,.87,10.49,2.59,3.18,1.73,5.68,4.07,7.48,7.01l-6.95,4.01c-.98-1.69-2.47-3.06-4.48-4.12-2-1.06-4.2-1.59-6.6-1.59-3.97,0-7.21,1.3-9.72,3.89-2.51,2.51-3.77,5.75-3.77,9.72s1.28,7.11,3.83,9.66c2.55,2.51,5.97,3.77,10.25,3.77,3.1,0,5.69-.69,7.78-2.06,2.08-1.38,3.5-3.3,4.24-5.77h-12.49v-7.19Z"></path>
              <path class="d" d="M438.21,170.44h-8.84l-2.47-7.42h-16.44l-2.47,7.42h-8.78l14.44-41.24h10.08l14.49,41.24Zm-19.5-31.88l-5.66,16.85h11.31l-5.66-16.85Z"></path>
              <path class="d" d="M488.35,129.19h9.19l-14.14,25.16v16.08h-8.07v-16.08l-14.08-25.16h9.19l8.96,17.21,8.96-17.21Z"></path>
              <path class="d" d="M561.24,165.08c-4.16,4.12-9.23,6.19-15.2,6.19s-11.04-2.06-15.2-6.19c-4.12-4.2-6.19-9.29-6.19-15.26s2.06-11.08,6.19-15.2,9.23-6.25,15.2-6.25,11.04,2.08,15.2,6.25c4.16,4.12,6.25,9.19,6.25,15.2s-2.08,11.1-6.25,15.26Zm-24.69-5.54c2.51,2.51,5.67,3.77,9.49,3.77s6.97-1.26,9.49-3.77c2.55-2.55,3.83-5.79,3.83-9.72s-1.28-7.17-3.83-9.72c-2.55-2.55-5.71-3.83-9.49-3.83s-6.93,1.28-9.49,3.83c-2.55,2.55-3.83,5.79-3.83,9.72s1.28,7.17,3.83,9.72Z"></path>
            </g>
            <g>
              <path class="d" d="M5.3,145.05v6.03h11.33v5.07H0v-26.89H16.44v5.07H5.3v5.72H15.48v4.99H5.3Z"></path>
              <path class="d" d="M29.62,129.26v21.82h10.26v5.07h-15.56v-26.89h5.3Z"></path>
            </g>
          </g>
          <g>
            <path class="d" d="M572.46,127.28s.07,.02,.12,.03c.05,0,.11,.01,.19,.01s.14,0,.19-.01c.05,0,.09-.02,.12-.03,.03-.01,.05-.03,.06-.04,.01-.02,.02-.04,.02-.06v-2.52h.53c.18,0,.33,.03,.46,.08,.13,.05,.24,.13,.33,.22,.09,.1,.18,.21,.24,.34,.07,.13,.13,.28,.2,.44l.54,1.39s.03,.07,.04,.09c.02,.02,.04,.04,.07,.06,.03,.01,.07,.02,.12,.03,.05,0,.11,0,.19,0,.09,0,.16,0,.22,0,.06,0,.1-.01,.13-.03,.03-.01,.05-.03,.06-.05,0-.02,.01-.04,.01-.06s0-.06-.02-.1c-.01-.04-.04-.12-.08-.23l-.53-1.3c-.06-.15-.12-.28-.18-.4-.06-.12-.12-.22-.19-.32-.07-.09-.14-.17-.22-.24-.08-.07-.17-.12-.27-.16,.17-.06,.33-.14,.47-.22,.14-.09,.26-.19,.36-.31,.1-.12,.18-.26,.23-.42,.05-.16,.08-.33,.08-.53s-.03-.39-.09-.56c-.06-.17-.15-.32-.27-.45-.12-.13-.27-.24-.44-.33-.18-.08-.38-.15-.61-.19-.08,0-.17-.02-.27-.03-.1,0-.22-.01-.37-.01h-1.26c-.07,0-.14,.02-.2,.07-.06,.05-.09,.13-.09,.25v5.48s0,.05,.02,.06c.01,.02,.03,.03,.06,.04Zm.7-5.26h.66c.15,0,.28,0,.38,.01,.1,0,.18,.02,.26,.05,.24,.07,.42,.19,.52,.35,.1,.16,.16,.36,.16,.59,0,.14-.02,.28-.07,.4-.05,.12-.12,.23-.22,.32-.1,.09-.23,.16-.38,.21-.15,.05-.33,.08-.54,.08h-.77v-1.99Z"></path>
            <path class="d" d="M574.35,130.02c3.13,0,5.68-2.55,5.68-5.68s-2.55-5.67-5.68-5.67-5.68,2.55-5.68,5.67,2.55,5.68,5.68,5.68Zm0-10.51c2.67,0,4.83,2.17,4.83,4.83s-2.17,4.84-4.83,4.84-4.83-2.17-4.83-4.84,2.17-4.83,4.83-4.83Z"></path>
          </g>
        </g>
        <path class="d" d="M315.66,87.73c-.5-.09-1-.16-1.49-.32-.26-.09-.52-.19-.75-.34-.23-.15-.39-.34-.43-.61-.02-.13-.08-.24-.17-.34-.18-.21-.34-.43-.53-.63-.22-.24-.38-.5-.39-.83,0-.16-.06-.18-.19-.09-1.25,.9-2.67,1.05-4.16,.92-.69-.06-1.35-.21-2.01-.4-.2-.06-.35-.02-.52,.08-1.02,.63-2.12,1.06-3.35,1.07-.39,0-.78-.04-1.13-.21-.33-.16-.64-.14-.98-.1-1.19,.15-2.67-.41-3.27-1.62-.1-.21-.15-.41-.14-.66,.02-.36-.07-.73-.06-1.11,0-.1-.07-.09-.14-.08-1.8,.19-3.36-.54-4.9-1.33-1.06-.54-2.03-1.22-2.88-2.07-.5-.5-.91-1.04-1.13-1.73-.08-.27-.3-.39-.54-.3-1.42,.51-2.57,.02-3.61-.92-.52-.46-.89-1.05-1.3-1.59-.11-.14-.22-.22-.41-.25-1.69-.28-2.83-1.77-2.68-3.48,.02-.27,.11-.54,.24-.78,.03-.06,.06-.13,.12-.15,.37-.16,.47-.56,.73-.81,.08-.07,.12-.15-.04-.18-1.12-.2-1.94-.87-2.68-1.67-.28-.3-.55-.62-.72-1-.13-.26-.29-.34-.57-.35-.95-.04-1.76-.44-2.41-1.13-.24-.25-.44-.54-.4-.93,0-.06-.04-.14-.07-.2-.11-.29-.2-.58-.21-.89-.01-.27-.04-.28-.28-.19-1.34,.49-2.85,.02-3.66-1.13-.19-.27-.34-.55-.24-.9,.03-.1-.02-.22-.04-.33-.09-.51,0-1,.24-1.45,.09-.17,.08-.22-.12-.21-.51,.01-1.01,.07-1.52,.05-1.8-.07-3.57-.31-5.23-1.05-1.88-.83-3.32-2.15-4.33-3.94-.2-.36-.43-.59-.86-.63-.25-.02-.5-.12-.74-.23-.27-.12-.48-.3-.55-.6v-.44s.03-.08,.03-.12c0-.24,.12-.33,.35-.39,.98-.23,1.97-.31,2.98-.24,.26,.02,.3-.05,.23-.3-.11-.43-.31-.83-.56-1.2-.23-.36-.48-.71-.7-1.08-.29-.48-.46-1-.4-1.57,.03-.28,.02-.54-.04-.81-.12-.6-.04-1.16,.46-1.59,.38-.32,.83-.45,1.31-.52,.13-.02,.26-.02,.35-.14,.35-.48,.83-.75,1.4-.9,.03,0,.08-.01,.09-.07-.07-.09-.13-.17-.2-.27-.36-.49-.6-1.02-.69-1.63-.04-.3,.1-.55,.12-.83,.08-1.21,.93-2.22,2.11-2.51,.21-.05,.43-.08,.66-.12-.09-.18-.17-.34-.21-.53-.08-.4,0-.79,.09-1.17,.17-.82,.15-1.53-.45-2.25-1.07-1.28-1.01-2.95,0-4.29,.69-.91,1.66-1.3,2.72-1.52,.08-.02,.16-.01,.24,.01,.39,.12,.81,.07,1.25,.25-.06-.11-.08-.16-.11-.21-.44-.72-.77-1.49-1.04-2.29-.09-.25-.13-.5-.12-.76,.04-.68,.06-1.35,.15-2.03,.13-1.06,.36-2.08,.86-3.03,.47-.89,1.15-1.51,2.11-1.81,.18-.06,.28-.16,.35-.33,.79-1.97,1.53-3.96,2.4-5.9,.05-.11,.05-.21,0-.33-.39-.93-.66-1.91-.91-2.88-.35-1.35-.64-2.7-.45-4.11,.1-.79,.32-1.55,.8-2.2,.11-.15,.22-.34,.41-.35,.23-.02,.38-.15,.54-.28,.63-.49,1.24-1.02,1.99-1.32h.29c.22,.35,.53,.63,.78,.95,1.17,1.54,2.26,3.15,3.41,4.71,.49,.67,1,1.33,1.51,1.98,.8,1.02,1.8,1.8,2.84,2.55,1.99,1.43,4.15,2.55,6.36,3.6,3.41,1.62,6.91,3.07,10.27,4.81,2.61,1.35,5.09,2.88,7.34,4.77,1.4,1.18,2.65,2.51,3.8,3.93,1.17,1.43,2.39,2.8,3.67,4.12,.8,.83,1.66,1.6,2.54,2.35,1.16,.99,2.47,1.64,3.94,2.04,1.32,.35,2.63,.8,3.88,1.35,.29,.13,.57,.27,.83,.45,.17,.11,.32,.24,.36,.46,.02,.11,.11,.16,.18,.22,.73,.59,1.46,1.17,2.12,1.84,.06,.06,.14,.1,.23,.13,.9,.27,1.8,.21,2.69-.03,.75-.21,1.5-.47,2.28-.57,.91-.12,1.76,0,2.46,.67,.08,.07,.15,.1,.26,.08,.21-.03,.42,0,.62,.06,2.12,.63,3.57,2.08,3.75,4.38,0,.04,.02,.08,.03,.12v1.02s-.03,.09-.03,.14c-.06,1.05-.31,2.07-.56,3.09-.21,.83-.71,1.56-.73,2.44,0,.1-.03,.19-.04,.29-.25,1.31-.8,2.48-1.53,3.59-.98,1.5-2.25,2.72-3.69,3.77-1.16,.84-2.01,1.92-2.46,3.31-.23,.72-.5,1.43-.73,2.16-.81,2.55-1.43,5.14-2.24,7.69-.45,1.44-.94,2.87-1.65,4.21-.36,.69-.76,1.35-1.49,1.74-.19,.1-.25,.31-.25,.52,0,.72-.06,1.43-.09,2.15-.04,1.06-.46,1.89-1.25,2.56-.58,.5-1.16,1.01-1.55,1.69-.16,.29-.39,.51-.65,.71-.38,.28-.79,.5-1.23,.68-1.02,.42-2.05,.82-3.15,1.02h-.78ZM271.56,12.48c-.03,.1-.05,.15-.07,.2-.52,1.83-1.14,3.62-1.75,5.41-.16,.48-.43,.79-.93,.92-.49,.13-.89,.41-1.19,.83-.33,.45-.58,.93-.75,1.46-.29,.88-.42,1.79-.48,2.71-.02,.27-.11,.55-.03,.82,.57,2.04,1.66,3.69,3.51,4.81,1.48,.9,3.11,1.29,4.82,1.47,1.21,.13,2.42,.3,3.62,.45,1.37,.17,2.73,.34,4.1,.52,1.42,.18,2.85,.35,4.27,.55,1.69,.24,3.38,.5,5.07,.76,1.47,.23,2.95,.46,4.4,.81,3.58,.87,7.15,1.82,10.78,2.45,1.78,.31,3.57,.57,5.38,.56,.36,0,.72,.04,1.08,.08,.5,.06,.99,.13,1.49,.15,.73,.04,1.45,.04,2.18,.05,.16,0,.3,.04,.43,.13,.33,.24,.66,.14,.8-.24,.04-.11,.07-.21,.1-.32,.1-.4,.18-.31-.23-.55-.7-.41-1.44-.74-2.07-1.26-.63-.53-1.23-1.1-1.82-1.68-.96-.96-1.87-1.96-2.76-2.99-.08-.09-.16-.18-.28-.23-1.73-.81-3.36-1.8-4.97-2.82-1.84-1.16-3.68-2.3-5.64-3.25-4-1.94-8.17-3.48-12.38-4.89-2.3-.77-4.66-1.31-7-1.94-2.11-.57-4.21-1.18-6.25-1.99-1.04-.41-1.97-.95-2.67-1.85-.27-.35-.52-.72-.78-1.14Zm44.63,32.62c-.15-.03-.26-.07-.38-.04-.85,.22-1.74,.27-2.61,.36-1.06,.12-2.12,.2-3.18,.31-1.15,.12-2.29,.24-3.44,.38-.81,.1-1.62,.19-2.41,.41-1.17,.33-2.28,.81-3.33,1.42-1.32,.77-2.67,1.52-3.87,2.48-1.73,1.38-3.32,2.92-4.99,4.37-2.69,2.33-5.66,4.18-8.96,5.49-1.58,.63-3.21,1.05-4.9,1.17-1.34,.09-2.68,0-4-.28-.27-.06-.41,.03-.45,.3-.03,.15-.02,.3,.01,.46,.14,.69,.58,1.16,1.13,1.55,.45,.31,.93,.53,1.5,.42,.62-.12,1.1,.25,1.18,.87,.13,.98,.56,1.82,1.31,2.47,.75,.65,1.6,.82,2.52,.38,.56-.27,1.07-.22,1.55,.19,.52,.44,1.13,.6,1.81,.48,.8-.13,1.51-.5,2.22-.88,.76-.41,1.48-.89,2.29-1.21,.5-.2,1.01-.25,1.54-.14,.78,.16,1.57,.2,2.36,.07,.62-.1,1.22-.3,1.68-.75,1.55-1.54,3.08-3.09,4.61-4.64,.08-.08,.15-.17,.22-.26,1.67-2.37,3.35-4.73,5-7.12,1.17-1.69,2.45-3.29,3.97-4.68,.8-.74,1.7-1.3,2.76-1.6,.83-.23,1.65-.51,2.46-.81,.83-.31,1.62-.71,2.42-1.18Zm3.34-7.83c0,.24,.06,.43,.04,.64-.03,.2-.06,.4-.15,.58-.32,.71-.92,1.06-1.63,1.25-.94,.25-1.89,.2-2.83,.08-.76-.1-1.5-.32-2.24-.5-1.77-.43-3.55-.82-5.32-1.25-3.8-.92-7.57-1.91-11.35-2.89-1.4-.36-2.83-.58-4.25-.83-1.52-.26-3.04-.5-4.56-.7-1.15-.15-2.3-.31-3.45-.45-1.16-.15-2.32-.28-3.48-.42-.91-.11-1.83-.2-2.74-.31-1.08-.12-2.16-.24-3.24-.38-.78-.1-1.57-.16-2.33-.38-1.62-.47-3.12-1.16-4.34-2.36-.4-.4-.78-.7-1.38-.69-.36,0-.72-.1-1.08-.15-.61-.08-1.09,.22-1.57,.53-1.44,.96-1.94,2.74-.74,4.23,.45,.55,.5,1.17,.38,1.83-.08,.46-.22,.91-.23,1.38,0,.43,.1,.59,.51,.74,.31,.11,.62,.17,.95,.17,2.96,0,5.91,.06,8.87,.09,2.16,.02,4.32-.08,6.48-.31,1.59-.16,3.18-.04,4.76,.09,1.24,.11,2.48,.27,3.72,.46,2.25,.35,4.48,.79,6.66,1.44,2.45,.73,4.93,1.29,7.46,1.61,1.72,.22,3.44,.41,5.16,.59,1.68,.18,3.35,.39,5,.69,1.29,.24,2.58,.52,3.8,1.02,.73,.29,1.43,.65,1.92,1.3,.11,.15,.18,.03,.25-.04,.57-.54,1.13-1.09,1.73-1.59,1.08-.9,2.28-1.54,3.69-1.75,.13-.02,.28,0,.39-.09,.33-.27,.69-.49,1.16-.63-2.08-.93-4.05-1.96-6.04-3.01Zm1.31,24.45c-.3-.1-.58-.18-.86-.29-.15-.06-.23-.03-.34,.08-.4,.43-.82,.85-1.27,1.23-.93,.79-1.91,1.49-3.07,1.9-.56,.19-1.13,.26-1.71,.28-.71,.03-1.42,.1-2.13,.05-.26-.02-.55-.1-.8,.07-1.09,.74-2.23,1.39-3.37,2.06-.44,.26-.93,.47-1.31,.82-.65,.6-1.14,1.32-1.45,2.15-.24,.64-.48,1.29-.71,1.93-1.06,3-2.75,5.58-5.11,7.71-.54,.49-1.06,.99-1.59,1.5-.29,.28-.35,.59-.2,.96,.07,.16,.13,.33,.19,.5,.45,1.15,1.38,2.04,2.85,2,.28,0,.54,.07,.77,.25,.37,.3,.82,.42,1.29,.41,.93-.02,1.79-.33,2.59-.79,.39-.23,.76-.27,1.18-.14,1.03,.32,2.08,.51,3.17,.45,.7-.04,1.37-.2,1.99-.55,.91-.51,1.56-1.27,2.09-2.15,.85-1.42,1.37-2.97,1.82-4.55,.64-2.27,1.14-4.57,1.75-6.84,.41-1.55,.82-3.11,1.48-4.58,.71-1.59,1.65-3.05,2.75-4.45Zm12.95-20.79c-.06-.03-.09-.05-.12-.05-.14,0-.29-.02-.44-.02-.8,.01-1.56,.26-2.33,.42-.73,.15-1.45,.29-2.2,.22-.4-.04-.77-.17-1.15-.27-.77-.21-1.53-.23-2.31,.02-.62,.2-1.18,.54-1.87,.62-.69,.08-1.35,.47-1.92,.92-.88,.68-1.64,1.49-2.41,2.28-.26,.27-.55,.35-.9,.28-.29-.05-.59-.08-.88-.14-.13-.02-.21,.01-.3,.09-1.07,.97-2.27,1.72-3.62,2.25-.77,.3-1.58,.52-2.32,.91-1.66,.86-2.97,2.17-4.13,3.58-2.08,2.52-3.97,5.2-5.88,7.86-.33,.46-.62,.97-1.02,1.38-1.53,1.54-3.08,3.06-4.62,4.59-.05,.05-.14,.09-.13,.19,.02,0,.03,.02,.05,.02,1.95,0,3.91,.1,5.86,.15,1.13,.03,2.24-.12,3.34-.33,2.39-.47,4.44-1.54,6.12-3.3,.86-.9,1.59-1.91,2.25-2.97,1.1-1.76,2.04-3.62,3.09-5.4,.99-1.68,2.06-3.31,3.32-4.79,1.91-2.24,4.14-4.1,6.75-5.49,1.26-.67,2.53-1.32,3.96-1.59,.71-.14,1.42-.31,2.11-.54,.61-.2,1.16-.51,1.71-.88Zm-74.36,10.41c.54,.06,1.03,.09,1.53,.08,1.19-.01,2.37-.1,3.55-.22,1.6-.17,3.2-.42,4.79-.68,2.81-.47,5.6-1,8.43-1.31,1.25-.14,2.51-.23,3.76-.26,1.1-.02,2.19,.03,3.29,.12,1.49,.13,2.96,.39,4.39,.82,.14,.04,.26,.03,.39-.05,1.13-.65,2.29-1.23,3.51-1.68,3.24-1.22,6.59-2.12,9.93-3.01,.79-.21,1.58-.36,2.39-.55-.15-.02-.27-.04-.4-.05-1.2-.05-2.4-.14-3.6-.17-.5-.01-1,0-1.5-.05-.87-.07-1.73-.14-2.6-.22-.71-.07-1.43-.14-2.14-.22-.64-.07-1.28-.2-1.92-.22-1.15-.04-2.28,.12-3.42,.27-1.04,.13-2.08,.29-3.13,.27-.65-.01-1.29-.06-1.93-.12-.41-.04-.83-.07-1.23-.23-1.74-.69-3.55-.98-5.41-1.02-.86-.02-1.73-.01-2.59,.05-.5,.04-1,.07-1.49,.12-.59,.07-1.12,.35-1.68,.52-.26,.08-.53,.16-.81,.11-.29-.05-.59-.11-.88-.16-1.32-.22-2.63-.25-3.93,.16-.63,.2-1.25,.47-1.94,.48-.7,0-1.4,.07-2.1,0-.49-.05-.98-.11-1.47-.07-.46,.03-.89,.11-1.15,.59-.12,.23-.37,.33-.64,.33-.27,0-.53,0-.8,.05-.51,.09-.67,.3-.55,.81,.06,.28,.1,.55,.02,.84-.12,.4,0,.77,.17,1.12,.16,.31,.34,.6,.53,.9,.32,.51,.6,1.03,.76,1.62,.09,.35,.11,.68-.13,1.03Zm77.52,1.89c-.38,.36-.75,.72-1.18,1-.53,.35-.97,.76-1.2,1.37-.03,.07-.07,.13-.11,.19-.57,.89-1.31,1.57-2.38,1.81-.11,.02-.19,.08-.24,.18-.34,.72-.89,1.24-1.58,1.62-.49,.27-.94,.6-1.34,.99-.33,.32-.69,.61-1.09,.84-.72,.39-1.52,.42-2.29,.52-.34,.05-.72-.02-1.03,.1-.92,.33-1.83,.35-2.76,.09-.21-.06-.3,0-.39,.19-.44,.89-.9,1.77-1.34,2.66-.56,1.11-1.21,2.18-1.66,3.34-.81,2.07-1.36,4.22-1.93,6.37-.53,1.99-1.03,3.99-1.8,5.9-.46,1.14-.99,2.25-1.82,3.18-.35,.4-.34,.39-.02,.81,.35,.46,.77,.82,1.32,1.02,.59,.21,1.19,.33,1.82,.38,1.24,.11,2.45,.02,3.63-.39,.38-.13,.77-.29,1.02-.63,.37-.51,.81-.96,1.29-1.38,.32-.28,.64-.56,.95-.86,.28-.27,.46-.59,.52-.99,.14-.85,.18-1.7,.19-2.55,.01-.63,.24-1.13,.84-1.42,.21-.1,.36-.27,.5-.45,.25-.33,.46-.68,.64-1.05,.59-1.17,1.01-2.41,1.4-3.66,.76-2.43,1.35-4.92,2.04-7.37,.32-1.11,.62-2.23,1.03-3.3,.62-1.6,1.7-2.86,3.03-3.92,.91-.73,1.85-1.43,2.63-2.32,.59-.67,1.02-1.42,1.31-2.26Zm-19.1-8.81c-.25-.24-.47-.41-.73-.53-1-.5-2.07-.77-3.16-.99-1.79-.37-3.6-.55-5.41-.79-2.07-.27-4.14-.5-6.21-.81-1.76-.26-3.52-.56-5.24-1.05-2.5-.72-5-1.45-7.58-1.89-1.27-.22-2.54-.42-3.83-.56-.79-.09-1.57-.15-2.36-.21-1.16-.08-2.33-.13-3.48-.01-1.82,.19-3.63,.28-5.46,.32-2.49,.05-4.97-.06-7.46-.04-.13,0-.26,0-.39,.01-.75,.05-1.51,.08-2.25,.01-.56-.06-1.09,.03-1.62,.17-1.31,.35-1.89,1.61-1.3,2.84,.35,.74,.96,1.24,1.62,1.7,.48,.33,.95,.54,1.55,.45,.46-.06,.93-.05,1.39-.17,.69-.17,1.4-.24,2.11-.24,1.1,0,2.19,.18,3.26,.41,.35,.08,.66,.07,1-.04,.71-.23,1.4-.51,2.18-.5,.63,.01,1.25-.08,1.88-.1,1.12-.04,2.24,0,3.36,.13,1.39,.16,2.75,.45,4.06,.97,.1,.04,.2,.08,.3,.09,.56,.06,1.12,.12,1.69,.15,1.33,.07,2.64-.05,3.95-.26,1.15-.18,2.32-.32,3.49-.32,.49,0,.98,.1,1.47,.15,.77,.07,1.54,.16,2.31,.2,.9,.06,1.8,.14,2.7,.17,1.37,.05,2.74-.03,4.12,.05,1.06,.06,2.1,.18,3.12,.49,.18,.05,.35,.05,.52,.03,1.2-.18,2.4-.32,3.61-.36,.77-.03,1.53-.02,2.3,0,.68,.02,1.37,.1,2.05,.17,.79,.09,1.58,.21,2.43,.36Zm-13.21,22.67c-.08,.02-.15,.04-.23,.06-.76,.19-1.51,.41-2.27,.58-.66,.15-1.33,.26-2,.35-.92,.12-1.84,.26-2.77,.17-.25-.03-.54-.03-.69-.28-.09-.14-.19-.2-.33-.25-.81-.27-1.63-.52-2.4-.91-.09-.04-.16-.05-.26-.02-.98,.26-1.97,.25-2.95,.06-.56-.11-1.07-.04-1.57,.21-.42,.22-.84,.45-1.25,.69-.76,.44-1.52,.89-2.35,1.18-1.16,.4-2.26,.38-3.29-.39-.33-.25-.62-.17-.79,.21-.11,.24-.21,.47-.29,.72-.18,.52-.29,1.06-.23,1.61,.09,.78,.41,1.17,1.18,1.38,.6,.16,.95,.52,1.04,1.13,.08,.55,.3,1.04,.65,1.46,.64,.77,1.39,1.23,2.46,.88,.76-.24,1.58,.23,1.8,.99,.16,.58,.48,1.04,.89,1.45,1.4,1.4,3.08,2.33,4.96,2.92,.53,.17,1.08,.26,1.64,.24,.23,0,.4-.07,.45-.34,.04-.23,.19-.43,.36-.59,.24-.23,.47-.46,.71-.69,1.11-1.05,2.2-2.11,3.14-3.32,1.27-1.63,2.04-3.49,2.6-5.45,.41-1.43,.71-2.9,1.78-4.06Zm4.23-39.62c-1.25-1.62-2.68-3.05-4.29-4.29-2.16-1.67-4.5-3.02-6.94-4.22-3.19-1.58-6.48-2.9-9.72-4.37-2.5-1.13-4.94-2.36-7.18-3.95-1.04-.74-2.09-1.49-2.9-2.48-1.75-2.14-3.47-4.3-4.42-6.98-.41,.94-.94,1.81-1.33,2.75-.01,.03-.02,.06-.03,.09-.41,1.34-.55,2.71-.44,4.11,.11,1.44,.47,2.82,1.17,4.08,.49,.87,1.09,1.65,2.05,2.05,.34,.15,.68,.31,1.02,.45,2.02,.83,4.12,1.42,6.22,1.99,2.82,.76,5.65,1.46,8.42,2.42,4,1.39,8,2.79,11.86,4.56,1.8,.83,3.56,1.73,5.18,2.88,.44,.31,.89,.61,1.33,.92Zm-19.89,22.71c-.16-.02-.27-.05-.38-.06-.98-.1-1.96-.2-2.93-.31-1.11-.13-2.21-.23-3.33-.26-.94-.03-1.89-.03-2.83,.03-1.3,.07-2.59,.22-3.87,.41-2.42,.37-4.81,.88-7.22,1.27-1.14,.19-2.28,.35-3.43,.46-.69,.07-1.38,.12-2.07,.15-1.32,.07-2.64,.05-3.96-.14-.94-.14-1.88-.16-2.82,.02-.08,.02-.18,0-.2,.1-.02,.11,.1,.13,.18,.17,.21,.09,.43,.16,.65,.19,.52,.07,.84,.36,1.09,.82,.81,1.54,1.99,2.73,3.53,3.56,1.52,.81,3.17,1.13,4.86,1.24,1.45,.09,2.89-.02,4.32-.25,1.89-.3,3.74-.79,5.56-1.37,3.18-1,6.22-2.35,9.16-3.93,1.23-.66,2.44-1.35,3.69-2.11Zm45.46-8.35c-.1-.03-.15,.02-.21,.06-.93,.53-1.92,.87-2.96,1.12-1.33,.32-2.66,.62-3.91,1.24-2.18,1.08-4.19,2.39-5.95,4.08-1.65,1.58-3,3.4-4.21,5.33-1.08,1.73-2.02,3.55-3.03,5.33-.86,1.51-1.79,2.95-2.97,4.24-.29,.31-.59,.61-.92,.91,.06,0,.08,.02,.1,.01,.98-.21,1.98-.28,2.97-.37,1.43-.12,2.72-.59,3.88-1.42,1.51-1.08,2.75-2.44,3.88-3.9,1.46-1.88,2.76-3.87,3.95-5.92,.83-1.42,1.82-2.67,3.01-3.8,1.03-.97,2.1-1.92,3.13-2.89,.59-.56,1.17-1.14,1.63-1.82,.41-.59,.84-1.17,1.33-1.7,.13-.14,.25-.29,.26-.5Zm4.01,4.65c-.01-.31-.02-.61-.05-.92-.09-.94-.48-1.64-1.41-1.99-.41-.15-.82-.32-1.17-.57-.13-.1-.17-.05-.22,.07-.21,.57-.58,1.01-1.03,1.41-.6,.53-1.21,1.05-1.84,1.53-1.16,.89-2.38,1.7-3.47,2.68-1.17,1.05-2.25,2.17-3.08,3.52-1.71,2.82-3.44,5.64-5.56,8.19-.03,.03-.09,.07-.04,.12,.03,.03,.09,.03,.13,.03,.33,.03,.66,.05,.99,.08,.61,.07,1.23,.11,1.82-.11,.67-.25,1.36-.23,2.05-.19,.83,.06,1.62-.05,2.27-.62,.63-.54,1.3-1,2.04-1.38,.57-.3,.95-.77,1.15-1.38,.06-.2,.18-.27,.39-.29,.56-.03,1.07-.21,1.5-.59,.52-.45,.86-1.02,1.15-1.63,.1-.21,.24-.37,.44-.5,.84-.56,1.6-1.2,2.22-2.01,1.22-1.62,1.63-3.5,1.72-5.47Zm-36.54-.23c-2.29,.65-4.59,1.22-6.85,1.95-2.1,.68-4.11,1.58-6.01,2.72-3.52,2.11-7.17,3.96-11.04,5.32-2.58,.91-5.19,1.66-7.91,2.02-.09,.01-.22,0-.26,.09-.14,.28-.33,.56-.28,.89,.11,.76,.59,1.24,1.28,1.52,.65,.27,1.23,.1,1.77-.32,.09-.07,.18-.14,.25-.23,.39-.46,.86-.55,1.41-.32,.9,.36,1.84,.55,2.8,.6,1.26,.07,2.5-.05,3.72-.36,2.36-.59,4.52-1.63,6.59-2.88,2.52-1.52,4.75-3.4,6.87-5.42,1.69-1.6,3.45-3.09,5.45-4.28,.73-.44,1.46-.89,2.2-1.31Z"></path>
      </g>
    </g>
  </g>
</svg>
